#!OML:ASF I:\Actors\actors\Patient Classification 1\Patient 1\Session 1\Subject1.ASF
:FULLY-SPECIFIED
:DEGREES
626
root 0.487737 17.5503 9.24887 8.29074 0.539302 -9.89262
lowerback 0.581796 0.345197 5.25744
upperback -6.63462 0.802553 1.65194
thorax -7.22357 0.139707 -1.26316
lowerneck 2.30605 -1.70591 -1.20067
upperneck 29.7875 -4.14792 6.98071
head 9.12152 -1.45109 2.34774
rclavicle -3.37934e-015 4.05521e-014
rhumerus 37.3502 -11.8526 -30.0699
rradius 147.437
rwrist 14.5262
rhand -20.7322 -43.3582
rfingers 7.12502
rthumb 5.63289 -73.2633
lclavicle -3.37934e-015 4.05521e-014
lhumerus 45.6299 9.44249 38.4524
lradius 146.118
lwrist 17.0748
lhand -39.4581 -24.006
lfingers 7.12502
lthumb -12.4453 5.60344
rfemur -6.40339 20.5975 27.428
rtibia 7.85741
rfoot -12.3631 -21.3498
rtoes 0.778762
lfemur 6.24514 -45.4776 -10.8606
ltibia -4.75821
lfoot -19.6 51.5097
ltoes 6.26114
627
root 0.486349 17.5489 9.2424 8.32958 0.497326 -9.96401
lowerback 0.5585 0.356521 5.16699
upperback -6.74462 0.820072 1.70114
thorax -7.32885 0.151688 -1.16175
lowerneck 2.37681 -1.57831 -1.94251
upperneck 30.1547 -4.20208 7.97542
head 9.27563 -1.45958 2.8339
rclavicle -2.29099e-014 2.70347e-014
rhumerus 36.411 -10.4525 -30.1073
rradius 147.832
rwrist 14.8242
rhand -21.8683 -43.2611
rfingers 7.12502
rthumb 4.53599 -73.1925
lclavicle -2.29099e-014 2.70347e-014
lhumerus 44.5094 8.32438 38.573
lradius 146.719
lwrist 16.4658
lhand -39.661 -25.7407
lfingers 7.12502
lthumb -12.6409 3.85681
rfemur -6.44688 20.6464 27.493
rtibia 7.81385
rfoot -12.3255 -21.3374
rtoes 0.622273
lfemur 6.23005 -45.5255 -10.7568
ltibia -4.79992
lfoot -19.5677 51.6232
ltoes 6.15732
628
root 0.485377 17.5486 9.23775 8.3953 0.438283 -9.95709
lowerback 0.484361 0.359216 5.06749
upperback -6.79082 0.8146 1.67915
thorax -7.33569 0.15346 -1.12833
lowerneck 2.51837 -1.51642 -1.99744
upperneck 30.1447 -4.16286 8.18218
head 9.24825 -1.43217 2.92065
rclavicle 2.03754e-015 -1.59028e-015
rhumerus 35.5841 -9.24535 -30.4621
rradius 148.023
rwrist 15.0979
rhand -22.9125 -43.3894
rfingers 7.12502
rthumb 3.5276 -73.34
lclavicle 2.03754e-015 -1.59028e-015
lhumerus 43.4812 7.24273 38.6134
lradius 147.152
lwrist 15.5056
lhand -40.526 -27.4918
lfingers 7.12502
lthumb -13.4748 2.05235
rfemur -6.53177 20.6123 27.4463
rtibia 7.78484
rfoot -12.265 -21.2586
rtoes 0.502516
lfemur 6.22168 -45.663 -10.7597
ltibia -4.84453
lfoot -19.7245 51.8142
ltoes 6.38407
629
root 0.48573 17.5484 9.23405 8.4912 0.375592 -9.87075
lowerback 0.412962 0.363896 4.94244
upperback -6.80977 0.806202 1.59956
thorax -7.31386 0.154275 -1.14104
lowerneck 2.60098 -1.55372 -1.76075
upperneck 29.7743 -4.17284 8.06647
head 9.09303 -1.43225 2.82906
rclavicle 4.47266e-015 -1.74931e-014
rhumerus 34.7988 -8.23473 -31.1189
rradius 148.05
rwrist 15.672
rhand -23.5026 -43.5451
rfingers 7.12502
rthumb 2.95777 -73.5043
lclavicle 4.47266e-015 -1.74931e-014
lhumerus 42.6268 6.20825 38.7036
lradius 147.342
lwrist 14.3228
lhand -41.5729 -28.9059
lfingers 7.12502
lthumb -14.4837 0.568557
rfemur -6.63326 20.6118 27.2893
rtibia 7.74325
rfoot -12.2712 -21.1901
rtoes 0.723265
lfemur 6.23054 -46.0327 -10.9027
ltibia -4.85368
lfoot -20.3479 52.144
ltoes 7.14136
630
root 0.487129 17.5469 9.2327 8.60033 0.296596 -9.76249
lowerback 0.328086 0.38404 4.76552
upperback -6.84598 0.816743 1.52529
thorax -7.30199 0.167401 -1.12031
lowerneck 2.45629 -1.628 -1.7151
upperneck 29.5394 -4.28702 8.14774
head 9.04175 -1.47593 2.83512
rclavicle 1.83876e-015 4.77083e-015
rhumerus 33.9849 -7.39148 -32.0824
rradius 147.865
rwrist 16.0986
rhand -23.7501 -43.0868
rfingers 7.12502
rthumb 2.71869 -73.0492
lclavicle 1.83876e-015 4.77083e-015
lhumerus 41.9196 5.28684 39.0999
lradius 147.24
lwrist 13.4626
lhand -42.2359 -29.6858
lfingers 7.12502
lthumb -15.1224 -0.258311
rfemur -6.72472 20.571 27.1028
rtibia 7.67319
rfoot -12.2481 -21.0764
rtoes 0.732237
lfemur 6.31761 -46.5573 -11.1539
ltibia -4.85651
lfoot -21.1864 52.5828
ltoes 7.94501
631
root 0.488696 17.5446 9.23415 8.71274 0.196222 -9.69445
lowerback 0.195646 0.397207 4.6994
upperback -6.77821 0.81544 1.45012
thorax -7.15052 0.172022 -1.16135
lowerneck 1.99282 -1.67377 -1.72961
upperneck 29.2929 -4.36861 8.26544
head 9.04385 -1.50002 2.86346
rclavicle 9.93923e-015 2.3059e-014
rhumerus 33.6069 -6.87193 -33.3844
rradius 147.614
rwrist 16.0115
rhand -23.7091 -42.4343
rfingers 7.12502
rthumb 2.7583 -72.3962
lclavicle 9.93923e-015 2.3059e-014
lhumerus 41.449 4.83742 39.8716
lradius 146.912
lwrist 13.5632
lhand -42.2861 -30.6873
lfingers 7.12502
lthumb -15.1708 -1.26337
rfemur -6.81461 20.5117 26.9679
rtibia 7.60878
rfoot -12.1789 -20.9308
rtoes 0.635039
lfemur 6.43009 -47.0053 -11.3679
ltibia -4.87619
lfoot -21.9848 52.9678
ltoes 8.78767
632
root 0.488977 17.5435 9.23405 8.82243 0.123282 -9.69693
lowerback 0.111733 0.372558 4.85749
upperback -6.75699 0.773137 1.29839
thorax -7.07898 0.137966 -1.40505
lowerneck 1.66997 -1.61269 -1.67345
upperneck 29.0253 -4.32294 8.47338
head 9.00602 -1.45301 2.92065
rclavicle -3.8763e-015 -3.4191e-014
rhumerus 33.1258 -6.27534 -34.8912
rradius 147.166
rwrist 15.5423
rhand -23.7969 -42.4685
rfingers 7.12502
rthumb 2.6735 -72.4315
lclavicle -3.8763e-015 -3.4191e-014
lhumerus 41.0107 4.68575 40.8035
lradius 146.404
lwrist 14.8118
lhand -42.0142 -32.484
lfingers 7.12502
lthumb -14.9088 -3.04047
rfemur -6.92312 20.5288 26.9182
rtibia 7.55646
rfoot -12.0803 -20.8705
rtoes 0.64868
lfemur 6.36115 -47.132 -11.3248
ltibia -4.88299
lfoot -22.3628 53.0989
ltoes 9.2858
633
root 0.48863 17.5441 9.23333 8.88023 0.0774714 -9.7244
lowerback 0.0789423 0.187094 4.70749
upperback -6.85145 0.526389 1.42003
thorax -7.17768 0.0255022 -1.17825
lowerneck 1.61052 -1.42972 -1.79196
upperneck 28.8096 -4.05407 8.51109
head 8.92359 -1.34128 2.96773
rclavicle 1.88845e-015 1.66979e-014
rhumerus 32.9785 -5.10488 -36.8211
rradius 146.583
rwrist 14.6551
rhand -23.9572 -42.884
rfingers 7.12502
rthumb 2.51873 -72.8489
lclavicle 1.88845e-015 1.66979e-014
lhumerus 39.9845 4.68443 41.8361
lradius 145.667
lwrist 16.1681
lhand -42.3499 -34.1702
lfingers 7.12502
lthumb -15.2322 -4.75099
rfemur -6.98935 20.5637 26.9216
rtibia 7.52405
rfoot -11.9609 -20.8753
rtoes 0.462567
lfemur 6.26808 -47.0886 -11.2148
ltibia -4.89203
lfoot -22.2575 53.1337
ltoes 9.11331
634
root 0.488395 17.5454 9.23466 8.87297 0.0157681 -9.75805
lowerback 0.0361249 0.0910088 4.63213
upperback -6.98129 0.40009 1.48216
thorax -7.30046 -0.0344453 -1.06227
lowerneck 1.49814 -1.36643 -1.88021
upperneck 28.7018 -3.96255 8.54086
head 8.90078 -1.30577 2.99648
rclavicle -1.15792e-014 1.51076e-014
rhumerus 32.5725 -3.98965 -38.6684
rradius 145.899
rwrist 13.4226
rhand -23.8886 -43.4046
rfingers 7.12502
rthumb 2.58498 -73.3687
lclavicle -1.15792e-014 1.51076e-014
lhumerus 39.0281 4.2628 42.9136
lradius 144.666
lwrist 16.9507
lhand -43.5961 -35.1044
lfingers 7.12502
lthumb -16.4323 -5.78037
rfemur -6.98315 20.5487 26.965
rtibia 7.53073
rfoot -11.917 -20.8294
rtoes 0.208261
lfemur 6.3458 -47.1304 -11.2362
ltibia -4.92196
lfoot -22.1044 53.2847
ltoes 8.80946
635
root 0.488668 17.547 9.23662 8.82106 -0.082291 -9.81795
lowerback 0.0101089 0.119031 4.66747
upperback -7.08903 0.442627 1.49688
thorax -7.4002 -0.0183924 -1.0684
lowerneck 1.21169 -1.364 -1.9981
upperneck 28.6694 -3.98121 8.66141
head 8.94596 -1.30926 3.05548
rclavicle 2.13694e-014 -3.97569e-015
rhumerus 31.9118 -3.07038 -40.2788
rradius 145.049
rwrist 12.1896
rhand -23.2482 -43.9751
rfingers 7.12502
rthumb 3.20338 -73.9307
lclavicle 2.13694e-014 -3.97569e-015
lhumerus 38.2131 3.49548 44.1605
lradius 143.527
lwrist 17.3149
lhand -45.1724 -35.3417
lfingers 7.12502
lthumb -17.9495 -6.15002
rfemur -6.91873 20.5015 27.0546
rtibia 7.53087
rfoot -11.8804 -20.7057
rtoes 0.0409046
lfemur 6.51199 -47.1663 -11.3092
ltibia -4.93006
lfoot -22.1493 53.4269
ltoes 8.81534
636
root 0.48939 17.5484 9.23796 8.74382 -0.223456 -9.90268
lowerback -0.0166552 0.22304 4.79071
upperback -7.26751 0.591619 1.47426
thorax -7.5707 0.040992 -1.1691
lowerneck 1.20543 -1.52659 -1.94718
upperneck 28.4954 -4.18821 8.60343
head 8.8969 -1.41022 3.00717
rclavicle -1.72943e-014 0
rhumerus 31.0132 -2.17779 -41.7969
rradius 143.971
rwrist 11.3702
rhand -22.6327 -44.4377
rfingers 7.12502
rthumb 3.79777 -74.3836
lclavicle -1.72943e-014 0
lhumerus 37.3166 2.3096 45.4763
lradius 142.448
lwrist 17.6637
lhand -46.8719 -35.1322
lfingers 7.12502
lthumb -19.5842 -6.09858
rfemur -6.82784 20.4916 27.1804
rtibia 7.5389
rfoot -11.8318 -20.5623
rtoes 0.00929392
lfemur 6.69743 -47.0844 -11.3662
ltibia -4.92187
lfoot -22.2207 53.4637
ltoes 8.84181
637
root 0.490609 17.5468 9.23912 8.6565 -0.424542 -9.92657
lowerback -0.0934566 0.394125 4.90773
upperback -7.49034 0.8224 1.34497
thorax -7.75371 0.135776 -1.38356
lowerneck 1.63291 -1.67874 -1.9692
upperneck 28.0621 -4.40309 8.76918
head 8.68245 -1.5196 3.04764
rclavicle -9.0447e-015 3.97569e-014
rhumerus 29.8725 -1.36258 -43.325
rradius 142.688
rwrist 11.2793
rhand -22.3207 -44.7727
rfingers 7.12502
rthumb 4.09911 -74.713
lclavicle -9.0447e-015 3.97569e-014
lhumerus 36.3742 0.817566 46.6138
lradius 141.433
lwrist 18.019
lhand -48.2031 -34.7665
lfingers 7.12502
lthumb -20.8636 -5.86836
rfemur -6.74691 20.5264 27.2397
rtibia 7.60376
rfoot -11.8385 -20.4169
rtoes -0.0520624
lfemur 6.96419 -46.9794 -11.5498
ltibia -4.95214
lfoot -22.4318 53.5047
ltoes 9.04043
638
root 0.492877 17.5433 9.23969 8.57095 -0.670175 -9.88972
lowerback -0.0271175 0.585582 4.99498
upperback -7.30041 1.06913 1.17379
thorax -7.56654 0.252468 -1.62874
lowerneck 0.201616 -1.87026 -2.021
upperneck 28.0585 -4.73793 8.9928
head 8.97102 -1.62349 3.09724
rclavicle 2.00773e-014 -4.85035e-014
rhumerus 29.4465 -1.23622 -44.7882
rradius 141.216
rwrist 11.5842
rhand -22.1696 -45.0674
rfingers 7.12502
rthumb 4.24501 -75.0048
lclavicle 2.00773e-014 -4.85035e-014
lhumerus 36.1629 -0.141865 47.6543
lradius 140.294
lwrist 17.8609
lhand -48.5363 -34.2033
lfingers 7.12502
lthumb -21.1836 -5.34072
rfemur -6.69484 20.5663 27.2163
rtibia 7.69587
rfoot -11.8354 -20.2498
rtoes -0.265698
lfemur 7.26378 -46.8803 -11.8425
ltibia -4.97729
lfoot -22.8589 53.5558
ltoes 9.54236
639
root 0.495098 17.5404 9.2389 8.49111 -0.87607 -9.88061
lowerback 0.0487569 0.668205 4.9936
upperback -7.33542 1.18432 1.14092
thorax -7.64068 0.305947 -1.67086
lowerneck -0.557374 -1.93284 -2.0767
upperneck 28.1332 -4.8575 9.07526
head 9.14973 -1.65497 3.12124
rclavicle 1.799e-014 -5.40694e-014
rhumerus 29.0951 -0.696923 -46.0668
rradius 139.679
rwrist 11.5805
rhand -22.0818 -45.2929
rfingers 7.12502
rthumb 4.32975 -75.2286
lclavicle 1.799e-014 -5.40694e-014
lhumerus 35.3522 -1.40567 48.6412
lradius 139.141
lwrist 16.9902
lhand -48.3755 -34.1279
lfingers 7.12502
lthumb -21.0292 -5.24807
rfemur -6.64651 20.6083 27.2181
rtibia 7.78036
rfoot -11.8325 -20.0983
rtoes -0.250381
lfemur 7.51813 -46.8763 -12.0935
ltibia -4.94701
lfoot -23.0535 53.704
ltoes 9.62638
640
root 0.497579 17.5374 9.2394 8.42881 -1.02413 -9.85718
lowerback 0.0976412 0.669017 4.92617
upperback -7.52069 1.19448 1.16495
thorax -7.87176 0.308132 -1.60967
lowerneck -0.826129 -1.94274 -1.88635
upperneck 28.2391 -4.86003 8.89771
head 9.23091 -1.64371 3.02478
rclavicle 9.93923e-016 1.90833e-014
rhumerus 28.8481 0.105553 -46.9626
rradius 138.05
rwrist 11.2431
rhand -22.15 -45.4859
rfingers 7.12502
rthumb 4.26393 -75.423
lclavicle 9.93923e-016 1.90833e-014
lhumerus 34.1485 -2.91736 49.4759
lradius 138.01
lwrist 15.6119
lhand -48.5118 -34.4834
lfingers 7.12502
lthumb -21.1601 -5.61819
rfemur -6.59204 20.6326 27.1978
rtibia 7.83649
rfoot -11.8613 -19.9839
rtoes -0.0959502
lfemur 7.75394 -46.9776 -12.3557
ltibia -4.91616
lfoot -23.0803 53.9344
ltoes 9.44935
